<?xml version="1.0" encoding="UTF-8"?>
<svg id="Ergo" xmlns="http://www.w3.org/2000/svg" viewBox="0 0 1448.759 468.416">
  <defs>
    <style>
      .cls-1 {
        fill: none;
      }

      .cls-2, .cls-3 {
        fill: #fff;
      }

      .cls-4 {
        fill: #f16364;
      }

      .cls-3 {
        stroke: #f16364;
        stroke-miterlimit: 10;
        stroke-width: 5px;
      }
    </style>
  </defs>
  <g id="Prime_E" data-name="Prime E">
    <g>
      <g>
        <rect class="cls-3" x="1216.259" y="7.882" width="100" height="100"/>
        <rect class="cls-3" x="1316.259" y="7.882" width="100" height="100"/>
        <rect class="cls-3" x="1116.259" y="7.882" width="100" height="100"/>
        <rect class="cls-3" x="1156.259" y="107.882" width="100" height="100"/>
        <rect class="cls-3" x="1121.259" y="207.882" width="100" height="100"/>
        <rect class="cls-3" x="1221.259" y="207.882" width="100" height="100"/>
        <rect class="cls-3" x="1321.259" y="207.882" width="125" height="100"/>
        <rect class="cls-3" x="1306.259" y="309.307" width="125" height="100"/>
        <rect class="cls-3" x="1181.259" y="309.307" width="125" height="100"/>
        <rect class="cls-3" x="1256.259" y="107.882" width="175" height="100"/>
      </g>
      <g>
        <rect class="cls-3" x="715.712" y="58.561" width="100" height="100" transform="translate(-7.657 107.623) rotate(-8)"/>
        <rect class="cls-3" x="814.739" y="44.643" width="100" height="100" transform="translate(-4.756 121.27) rotate(-8)"/>
        <rect class="cls-3" x="913.766" y="30.726" width="100" height="100" transform="translate(-1.856 134.916) rotate(-8)"/>
        <rect class="cls-3" x="754.386" y="154.108" width="100" height="100" transform="translate(-20.578 113.935) rotate(-8)"/>
        <rect class="cls-3" x="853.413" y="140.191" width="100" height="100" transform="translate(-17.677 127.582) rotate(-8)"/>
        <rect class="cls-3" x="952.44" y="126.273" width="100" height="100" transform="translate(-14.777 141.228) rotate(-8)"/>
        <rect class="cls-3" x="718.79" y="260.094" width="100" height="100" transform="translate(-35.675 110.013) rotate(-8)"/>
        <rect class="cls-3" x="817.817" y="246.176" width="100" height="100" transform="translate(-32.774 123.659) rotate(-8)"/>
        <rect class="cls-3" x="732.099" y="350.422" width="225" height="100" transform="translate(-47.508 121.442) rotate(-8)"/>
        <rect class="cls-3" x="955.396" y="326.067" width="125" height="100" transform="translate(-42.432 145.324) rotate(-8)"/>
        <rect class="cls-3" x="916.844" y="232.259" width="100" height="100" transform="translate(-29.874 137.306) rotate(-8)"/>
        <rect class="cls-3" x="1012.793" y="16.809" width="100" height="100" transform="translate(1.045 148.562) rotate(-8)"/>
        <rect class="cls-3" x="1051.467" y="112.356" width="100" height="100" transform="translate(-11.876 154.875) rotate(-8)"/>
        <rect class="cls-3" x="1015.871" y="218.342" width="100" height="100" transform="translate(-26.973 150.952) rotate(-8)"/>
      </g>
      <g>
        <g>
          <rect class="cls-2" x="1116.259" y="7.882" width="100" height="100"/>
          <rect class="cls-2" x="1156.259" y="107.882" width="100" height="100"/>
          <rect class="cls-2" x="1121.259" y="207.882" width="100" height="100"/>
          <rect class="cls-2" x="1012.793" y="16.809" width="100" height="100" transform="translate(1.045 148.562) rotate(-8)"/>
          <rect class="cls-2" x="1051.467" y="112.356" width="100" height="100" transform="translate(-11.876 154.875) rotate(-8)"/>
          <rect class="cls-2" x="1015.871" y="218.342" width="100" height="100" transform="translate(-26.973 150.952) rotate(-8)"/>
        </g>
        <g>
          <polygon class="cls-1" points="1129.631 105.382 1146.15 103.061 1146.476 105.382 1153.759 105.382 1213.759 105.382 1213.759 10.382 1118.759 10.382 1118.759 87.802 1121.23 105.382 1129.631 105.382"/>
          <polygon class="cls-1" points="1123.759 303.01 1124.093 305.382 1218.759 305.382 1218.759 210.382 1153.759 210.382 1136.972 210.382 1123.759 212.239 1123.759 303.01"/>
          <polygon class="cls-1" points="1136.623 205.382 1153.759 202.974 1153.759 193.132 1142.129 110.382 1129.978 110.382 1115.619 112.4 1047.818 121.929 1061.04 216.005 1110.554 209.046 1110.554 209.046 1118.759 207.893 1118.759 205.382 1136.623 205.382"/>
          <polygon class="cls-1" points="1111.25 213.997 1118.759 267.431 1118.759 212.942 1111.25 213.997"/>
          <polygon class="cls-1" points="1103.22 13.16 1009.144 26.382 1022.366 120.457 1042.171 117.674 1042.171 117.674 1098.481 109.76 1113.759 107.613 1113.759 88.148 1103.22 13.16"/>
          <polygon class="cls-1" points="1069.111 219.919 1012.222 227.915 1025.444 321.99 1118.759 308.876 1118.759 303.356 1106.298 214.693 1069.111 219.919"/>
          <polygon class="cls-1" points="1153.759 110.382 1147.178 110.382 1153.759 157.207 1153.759 110.382"/>
          <polygon class="cls-1" points="1223.759 205.382 1253.759 205.382 1253.759 110.382 1218.759 110.382 1158.759 110.382 1158.759 192.786 1160.529 205.382 1223.759 205.382"/>
          <polygon class="cls-4" points="1118.759 212.942 1118.759 267.431 1123.759 303.01 1123.759 212.239 1118.759 212.942"/>
          <polygon class="cls-4" points="1218.759 105.382 1218.759 5.382 1113.759 5.382 1113.759 52.223 1118.759 87.802 1118.759 10.382 1213.759 10.382 1213.759 105.382 1153.759 105.382 1146.476 105.382 1147.178 110.382 1153.759 110.382 1153.759 157.207 1158.759 192.786 1158.759 110.382 1218.759 110.382 1253.759 110.382 1253.759 205.382 1223.759 205.382 1160.529 205.382 1160.762 207.039 1136.972 210.382 1153.759 210.382 1218.759 210.382 1218.759 305.382 1124.093 305.382 1124.795 310.382 1223.759 310.382 1223.759 210.382 1258.759 210.382 1258.759 105.382 1218.759 105.382"/>
          <polygon class="cls-4" points="1121.392 106.54 1129.631 105.382 1121.23 105.382 1121.392 106.54"/>
          <polygon class="cls-4" points="1118.759 308.876 1025.444 321.99 1012.222 227.915 1069.111 219.919 1106.298 214.693 1118.759 303.356 1118.759 267.431 1111.25 213.997 1118.759 212.942 1118.759 207.893 1110.554 209.046 1110.554 209.046 1061.04 216.005 1047.818 121.929 1115.619 112.4 1129.978 110.382 1113.759 110.382 1113.759 107.613 1098.481 109.76 1042.171 117.674 1042.171 117.674 1022.366 120.457 1009.144 26.382 1103.22 13.16 1113.759 88.148 1113.759 52.223 1107.476 7.513 1003.497 22.126 1018.111 126.105 1042.867 122.625 1056.089 216.701 1006.575 223.659 1021.188 327.638 1125.166 313.024 1124.795 310.382 1118.759 310.382 1118.759 308.876"/>
          <polygon class="cls-4" points="1153.759 205.382 1153.759 202.974 1136.623 205.382 1153.759 205.382"/>
          <polygon class="cls-4" points="1153.759 193.132 1153.759 157.207 1147.178 110.382 1142.129 110.382 1153.759 193.132"/>
          <polygon class="cls-4" points="1116.442 107.236 1113.759 107.613 1113.759 110.382 1129.978 110.382 1141.894 108.708 1142.129 110.382 1147.178 110.382 1146.476 105.382 1129.631 105.382 1121.392 106.54 1121.23 105.382 1118.759 105.382 1118.759 87.802 1113.759 52.223 1113.759 88.148 1116.442 107.236"/>
          <polygon class="cls-4" points="1155.115 202.783 1153.759 202.974 1153.759 205.382 1136.623 205.382 1118.759 207.893 1118.759 212.942 1123.759 212.239 1123.759 210.382 1136.972 210.382 1160.762 207.039 1160.529 205.382 1158.759 205.382 1158.759 192.786 1153.759 157.207 1153.759 193.132 1155.115 202.783"/>
          <polygon class="cls-4" points="1123.759 305.382 1123.759 303.01 1118.759 267.431 1118.759 303.356 1119.52 308.769 1118.759 308.876 1118.759 310.382 1124.795 310.382 1124.093 305.382 1123.759 305.382"/>
        </g>
      </g>
    </g>
    <g>
      <g>
        <rect class="cls-3" x="32.5" y="7.88" width="100" height="100"/>
        <rect class="cls-3" x="17.5" y="107.88" width="125" height="100"/>
        <rect class="cls-3" x="17.5" y="307.88" width="125" height="100"/>
        <rect class="cls-3" x="142.5" y="307.88" width="125" height="100"/>
        <rect class="cls-3" x="132.5" y="7.88" width="100" height="100"/>
        <rect class="cls-3" x="142.5" y="107.88" width="100" height="100"/>
        <rect class="cls-3" x="2.5" y="207.88" width="175" height="100"/>
        <rect class="cls-3" x="177.5" y="207.88" width="100" height="100"/>
      </g>
      <g>
        <rect class="cls-3" x="235.803" y="9.296" width="100" height="100" transform="translate(11.034 -39.199) rotate(8)"/>
        <rect class="cls-3" x="334.829" y="23.213" width="100" height="100" transform="translate(13.934 -52.845) rotate(8)"/>
        <rect class="cls-3" x="433.856" y="37.13" width="100" height="100" transform="translate(16.835 -66.492) rotate(8)"/>
        <rect class="cls-3" x="532.883" y="51.048" width="100" height="100" transform="translate(19.736 -80.138) rotate(8)"/>
        <rect class="cls-3" x="246.642" y="111.802" width="100" height="100" transform="translate(25.405 -39.71) rotate(8)"/>
        <rect class="cls-3" x="345.669" y="125.719" width="100" height="100" transform="translate(28.306 -53.356) rotate(8)"/>
        <rect class="cls-3" x="444.696" y="139.636" width="100" height="100" transform="translate(31.207 -67.003) rotate(8)"/>
        <rect class="cls-3" x="543.722" y="153.554" width="100" height="100" transform="translate(34.107 -80.649) rotate(8)"/>
        <rect class="cls-3" x="282.238" y="217.787" width="100" height="100" transform="translate(40.502 -43.633) rotate(8)"/>
        <rect class="cls-3" x="381.265" y="231.705" width="100" height="100" transform="translate(43.403 -57.279) rotate(8)"/>
        <rect class="cls-3" x="480.292" y="245.622" width="100" height="100" transform="translate(46.303 -70.925) rotate(8)"/>
        <rect class="cls-3" x="579.318" y="259.539" width="100" height="100" transform="translate(49.204 -84.572) rotate(8)"/>
        <rect class="cls-3" x="465.888" y="351.607" width="200" height="100" transform="translate(61.4 -74.848) rotate(8)"/>
        <rect class="cls-3" x="342.469" y="328.992" width="125" height="100" transform="translate(56.687 -52.672) rotate(8)"/>
      </g>
      <g>
        <g>
          <rect class="cls-2" x="132.5" y="7.88" width="100" height="100"/>
          <rect class="cls-2" x="142.5" y="107.88" width="100" height="100"/>
          <rect class="cls-2" x="177.5" y="207.88" width="100" height="100"/>
          <rect class="cls-2" x="235.803" y="9.296" width="100" height="100" transform="translate(11.034 -39.199) rotate(8)"/>
          <rect class="cls-2" x="246.642" y="111.802" width="100" height="100" transform="translate(25.405 -39.71) rotate(8)"/>
          <rect class="cls-2" x="282.238" y="217.787" width="100" height="100" transform="translate(40.502 -43.633) rotate(8)"/>
        </g>
        <g>
          <polygon class="cls-1" points="240 110.38 235 110.38 145 110.38 145 205.38 175 205.38 237.502 205.38 240 187.604 240 110.38"/>
          <polygon class="cls-1" points="245 152.025 251.263 107.457 245 106.577 245 152.025"/>
          <polygon class="cls-1" points="245 202.511 265.413 205.38 280 205.38 280 207.43 337.069 215.45 350.29 121.375 295.967 113.74 256.215 108.153 245 187.95 245 202.511"/>
          <polygon class="cls-1" points="306.386 216.187 291.811 214.139 280 298.174 280 308.412 372.665 321.436 385.887 227.36 341.324 221.097 341.324 221.098 306.386 216.187"/>
          <polygon class="cls-1" points="280 212.479 280 262.249 286.859 213.443 280 212.479"/>
          <polygon class="cls-1" points="235 105.172 235 105.38 236.48 105.38 235 105.172"/>
          <polygon class="cls-1" points="265.064 210.38 245 210.38 180 210.38 180 305.38 273.939 305.38 275 297.828 275 211.776 265.064 210.38"/>
          <polygon class="cls-1" points="251.959 102.506 305.902 110.087 326.23 112.944 339.451 18.869 245.375 5.647 235 79.468 235 100.123 251.959 102.506 251.959 102.506"/>
          <polygon class="cls-1" points="226.507 103.978 230 79.121 230 10.38 135 10.38 135 105.38 140 105.38 230 105.38 230 104.469 226.507 103.978"/>
          <polygon class="cls-4" points="230 104.469 230 105.38 235 105.38 235 105.172 230 104.469"/>
          <polygon class="cls-4" points="135 105.38 135 10.38 230 10.38 230 79.121 235 43.543 235 5.38 130 5.38 130 110.38 140 110.38 140 105.38 135 105.38"/>
          <polygon class="cls-4" points="145 205.38 145 110.38 140 110.38 140 210.38 175 210.38 175 205.38 145 205.38"/>
          <polygon class="cls-4" points="240 187.604 245 152.025 245 106.577 236.48 105.38 235 105.38 235 110.38 240 110.38 240 187.604"/>
          <polygon class="cls-4" points="235 110.38 235 105.38 230 105.38 140 105.38 140 110.38 145 110.38 235 110.38"/>
          <polygon class="cls-4" points="245 207.56 245 210.38 265.064 210.38 245 207.56"/>
          <polygon class="cls-4" points="180 305.38 180 210.38 175 210.38 175 310.38 273.236 310.38 273.939 305.38 180 305.38"/>
          <polygon class="cls-4" points="275 211.776 275 297.828 280 262.249 280 212.479 275 211.776"/>
          <polygon class="cls-4" points="245 210.38 245 207.56 237.347 206.484 237.502 205.38 175 205.38 175 210.38 180 210.38 245 210.38"/>
          <polygon class="cls-4" points="245.375 5.647 339.451 18.869 326.23 112.944 305.902 110.087 331.181 113.64 345.098 14.613 241.119 0 235 43.543 235 79.468 245.375 5.647"/>
          <polygon class="cls-4" points="256.215 108.153 256.215 108.153 295.967 113.74 256.215 108.153"/>
          <polygon class="cls-4" points="245 105.38 245 106.577 251.263 107.457 251.959 102.506 235 100.123 235 105.172 236.48 105.38 245 105.38"/>
          <polygon class="cls-4" points="230 104.469 235 105.172 235 100.123 232.154 99.723 235 79.468 235 43.543 230 79.121 230 104.469"/>
          <polygon class="cls-4" points="236.48 105.38 245 106.577 245 105.38 236.48 105.38"/>
          <polygon class="cls-4" points="245 187.95 256.215 108.153 251.263 107.457 245 152.025 245 187.95"/>
          <polygon class="cls-4" points="295.967 113.74 350.29 121.375 337.069 215.45 280 207.43 280 212.479 286.859 213.443 287.555 208.492 342.02 216.146 355.937 117.119 331.181 113.64 330.486 118.591 295.967 113.74"/>
          <polygon class="cls-4" points="251.959 102.506 305.902 110.087 251.959 102.506 251.959 102.506"/>
          <polygon class="cls-4" points="341.324 221.098 341.324 221.097 306.386 216.187 341.324 221.098"/>
          <polygon class="cls-4" points="245 205.38 265.413 205.38 245 202.511 245 205.38"/>
          <polygon class="cls-4" points="242.993 202.229 245 187.95 245 152.025 240 187.604 240 205.38 245 205.38 245 202.511 242.993 202.229"/>
          <polygon class="cls-4" points="275 210.38 275 211.776 280 212.479 280 207.43 265.413 205.38 245 205.38 245 207.56 265.064 210.38 275 210.38"/>
          <polygon class="cls-4" points="240 205.38 237.502 205.38 237.347 206.484 245 207.56 245 205.38 240 205.38"/>
          <polygon class="cls-4" points="251.959 102.506 251.263 107.457 256.215 108.153 256.215 108.153 295.967 113.74 330.486 118.591 331.181 113.64 305.902 110.087 251.959 102.506"/>
          <polygon class="cls-4" points="342.02 216.146 341.324 221.097 385.887 227.36 372.665 321.436 280 308.412 280 310.38 273.236 310.38 272.943 312.47 376.921 327.083 391.533 223.105 342.02 216.146"/>
          <polygon class="cls-4" points="306.386 216.187 286.859 213.443 280 262.249 280 298.174 291.811 214.139 306.386 216.187"/>
          <polygon class="cls-4" points="280 308.412 278.589 308.214 280 298.174 280 262.249 275 297.828 275 305.38 273.939 305.38 273.236 310.38 280 310.38 280 308.412"/>
          <polygon class="cls-4" points="286.859 213.443 306.386 216.187 341.324 221.097 342.02 216.146 287.555 208.492 286.859 213.443"/>
        </g>
      </g>
    </g>
  </g>
</svg>