<?xml version="1.0" encoding="UTF-8"?>
<svg id="Big_Boards" data-name="Big Boards" xmlns="http://www.w3.org/2000/svg" viewBox="0 0 3005 755">
  <defs>
    <style>
      .cls-1 {
        fill: #fff;
        stroke: #f16364;
        stroke-miterlimit: 10;
        stroke-width: 5px;
      }
    </style>
  </defs>
  <g id="_140_Leviathan" data-name="140%/Leviathan">
    <rect class="cls-1" x="1252.5" y="252.5" width="100" height="100"/>
    <rect class="cls-1" x="1252.5" y="352.5" width="150" height="100"/>
    <rect class="cls-1" x="1252.5" y="452.5" width="175" height="100"/>
    <rect class="cls-1" x="1402.5" y="352.5" width="100" height="100"/>
    <rect class="cls-1" x="1427.5" y="452.5" width="100" height="100"/>
    <rect class="cls-1" x="1477.5" y="552.5" width="100" height="100"/>
    <rect class="cls-1" x="1577.5" y="552.5" width="100" height="100"/>
    <rect class="cls-1" x="1677.5" y="552.5" width="100" height="100"/>
    <rect class="cls-1" x="1777.5" y="552.5" width="100" height="100"/>
    <rect class="cls-1" x="1877.5" y="552.5" width="100" height="100"/>
    <rect class="cls-1" x="1977.5" y="552.5" width="100" height="100"/>
    <rect class="cls-1" x="2077.5" y="552.5" width="100" height="100"/>
    <rect class="cls-1" x="2177.5" y="552.5" width="100" height="100"/>
    <rect class="cls-1" x="2277.5" y="552.5" width="100" height="100"/>
    <rect class="cls-1" x="2377.5" y="552.5" width="100" height="100"/>
    <rect class="cls-1" x="2477.5" y="552.5" width="275" height="100"/>
    <rect class="cls-1" x="1527.5" y="452.5" width="100" height="100"/>
    <rect class="cls-1" x="1627.5" y="452.5" width="100" height="100"/>
    <rect class="cls-1" x="1727.5" y="452.5" width="100" height="100"/>
    <rect class="cls-1" x="1827.5" y="452.5" width="100" height="100"/>
    <rect class="cls-1" x="1927.5" y="452.5" width="100" height="100"/>
    <rect class="cls-1" x="2027.5" y="452.5" width="100" height="100"/>
    <rect class="cls-1" x="2127.5" y="452.5" width="100" height="100"/>
    <rect class="cls-1" x="2227.5" y="452.5" width="100" height="100"/>
    <rect class="cls-1" x="2327.5" y="452.5" width="100" height="100"/>
    <rect class="cls-1" x="2427.5" y="452.5" width="100" height="100"/>
    <rect class="cls-1" x="2527.5" y="452.5" width="225" height="100"/>
    <rect class="cls-1" x="1252.5" y="552.5" width="225" height="100"/>
    <rect class="cls-1" x="1252.5" y="652.5" width="125" height="100"/>
    <rect class="cls-1" x="1377.5" y="652.5" width="125" height="100"/>
    <rect class="cls-1" x="1502.5" y="652.5" width="125" height="100"/>
    <rect class="cls-1" x="2627.5" y="652.5" width="125" height="100"/>
    <rect class="cls-1" x="2502.5" y="652.5" width="125" height="100"/>
    <rect class="cls-1" x="2377.5" y="652.5" width="125" height="100"/>
    <rect class="cls-1" x="2252.5" y="652.5" width="125" height="100"/>
    <rect class="cls-1" x="1627.5" y="652.5" width="625" height="100"/>
    <rect class="cls-1" x="1502.5" y="352.5" width="100" height="100"/>
    <rect class="cls-1" x="1602.5" y="352.5" width="100" height="100"/>
    <rect class="cls-1" x="1702.5" y="352.5" width="100" height="100"/>
    <rect class="cls-1" x="1802.5" y="352.5" width="100" height="100"/>
    <rect class="cls-1" x="1902.5" y="352.5" width="100" height="100"/>
    <rect class="cls-1" x="2002.5" y="352.5" width="100" height="100"/>
    <rect class="cls-1" x="2102.5" y="352.5" width="100" height="100"/>
    <rect class="cls-1" x="2202.5" y="352.5" width="100" height="100"/>
    <rect class="cls-1" x="2302.5" y="352.5" width="100" height="100"/>
    <rect class="cls-1" x="2402.5" y="352.5" width="100" height="100"/>
    <rect class="cls-1" x="2502.5" y="352.5" width="100" height="100"/>
    <rect class="cls-1" x="2602.5" y="352.5" width="150" height="100"/>
    <rect class="cls-1" x="1352.5" y="252.5" width="100" height="100"/>
    <rect class="cls-1" x="1452.5" y="252.5" width="100" height="100"/>
    <rect class="cls-1" x="1552.5" y="252.5" width="100" height="100"/>
    <rect class="cls-1" x="1652.5" y="252.5" width="100" height="100"/>
    <rect class="cls-1" x="1752.5" y="252.5" width="100" height="100"/>
    <rect class="cls-1" x="1852.5" y="252.5" width="100" height="100"/>
    <rect class="cls-1" x="1952.5" y="252.5" width="100" height="100"/>
    <rect class="cls-1" x="2052.5" y="252.5" width="100" height="100"/>
    <rect class="cls-1" x="2152.5" y="252.5" width="100" height="100"/>
    <rect class="cls-1" x="2252.5" y="252.5" width="100" height="100"/>
    <rect class="cls-1" x="2352.5" y="252.5" width="100" height="100"/>
    <rect class="cls-1" x="2452.5" y="252.5" width="100" height="100"/>
    <rect class="cls-1" x="1252.5" y="102.5" width="100" height="100"/>
    <rect class="cls-1" x="1352.5" y="102.5" width="100" height="100"/>
    <rect class="cls-1" x="1452.5" y="102.5" width="100" height="100"/>
    <rect class="cls-1" x="1552.5" y="102.5" width="100" height="100"/>
    <rect class="cls-1" x="1702.5" y="102.5" width="100" height="100"/>
    <rect class="cls-1" x="1802.5" y="102.5" width="100" height="100"/>
    <rect class="cls-1" x="1902.5" y="102.5" width="100" height="100"/>
    <rect class="cls-1" x="2002.5" y="102.5" width="100" height="100"/>
    <rect class="cls-1" x="2152.5" y="102.5" width="100" height="100"/>
    <rect class="cls-1" x="2252.5" y="102.5" width="100" height="100"/>
    <rect class="cls-1" x="2352.5" y="102.5" width="100" height="100"/>
    <rect class="cls-1" x="2452.5" y="102.5" width="100" height="100"/>
    <rect class="cls-1" x="1252.5" y="2.5" width="100" height="100"/>
    <rect class="cls-1" x="1352.5" y="2.5" width="100" height="100"/>
    <rect class="cls-1" x="1002.5" y="352.5" width="100" height="100"/>
    <rect class="cls-1" x="1102.5" y="352.5" width="100" height="100"/>
    <rect class="cls-1" x="1002.5" y="252.5" width="100" height="100"/>
    <rect class="cls-1" x="1102.5" y="252.5" width="100" height="100"/>
    <rect class="cls-1" x="1002.5" y="102.5" width="100" height="100"/>
    <rect class="cls-1" x="1102.5" y="102.5" width="100" height="100"/>
    <rect class="cls-1" x="1002.5" y="2.5" width="100" height="100"/>
    <rect class="cls-1" x="1102.5" y="2.5" width="100" height="100"/>
    <rect class="cls-1" x="1002.5" y="552.5" width="100" height="100"/>
    <rect class="cls-1" x="1102.5" y="552.5" width="100" height="100"/>
    <rect class="cls-1" x="1002.5" y="652.5" width="100" height="100"/>
    <rect class="cls-1" x="1102.5" y="652.5" width="100" height="100"/>
    <rect class="cls-1" x="1002.5" y="452.5" width="100" height="100"/>
    <rect class="cls-1" x="1102.5" y="452.5" width="100" height="100"/>
    <rect class="cls-1" x="2802.5" y="352.5" width="100" height="100"/>
    <rect class="cls-1" x="2902.5" y="352.5" width="100" height="100"/>
    <rect class="cls-1" x="2802.5" y="252.5" width="100" height="100"/>
    <rect class="cls-1" x="2902.5" y="252.5" width="100" height="100"/>
    <rect class="cls-1" x="2802.5" y="102.5" width="100" height="100"/>
    <rect class="cls-1" x="2902.5" y="102.5" width="100" height="100"/>
    <rect class="cls-1" x="2802.5" y="2.5" width="100" height="100"/>
    <rect class="cls-1" x="2902.5" y="2.5" width="100" height="100"/>
    <rect class="cls-1" x="2802.5" y="552.5" width="100" height="100"/>
    <rect class="cls-1" x="2902.5" y="552.5" width="100" height="100"/>
    <rect class="cls-1" x="2802.5" y="652.5" width="100" height="100"/>
    <rect class="cls-1" x="2902.5" y="652.5" width="100" height="100"/>
    <rect class="cls-1" x="2802.5" y="452.5" width="100" height="100"/>
    <rect class="cls-1" x="2902.5" y="452.5" width="100" height="100"/>
    <rect class="cls-1" x="1452.5" y="2.5" width="100" height="100"/>
    <rect class="cls-1" x="1552.5" y="2.5" width="100" height="100"/>
    <rect class="cls-1" x="1702.5" y="2.5" width="100" height="100"/>
    <rect class="cls-1" x="1802.5" y="2.5" width="100" height="100"/>
    <rect class="cls-1" x="1902.5" y="2.5" width="100" height="100"/>
    <rect class="cls-1" x="2002.5" y="2.5" width="100" height="100"/>
    <rect class="cls-1" x="2152.5" y="2.5" width="100" height="100"/>
    <rect class="cls-1" x="2252.5" y="2.5" width="100" height="100"/>
    <rect class="cls-1" x="2352.5" y="2.5" width="100" height="100"/>
    <rect class="cls-1" x="2452.5" y="2.5" width="100" height="100"/>
    <rect class="cls-1" x="2652.5" y="102.5" width="100" height="100"/>
    <rect class="cls-1" x="2652.5" y="2.5" width="100" height="100"/>
    <rect class="cls-1" x="2552.5" y="252.5" width="200" height="100"/>
    <rect class="cls-1" x="652.5" y="252.5" width="100" height="100"/>
    <rect class="cls-1" x="752.5" y="252.5" width="100" height="100"/>
    <rect class="cls-1" x="852.5" y="252.5" width="100" height="100"/>
    <rect class="cls-1" x="652.5" y="352.5" width="100" height="100"/>
    <rect class="cls-1" x="752.5" y="352.5" width="100" height="100"/>
    <rect class="cls-1" x="852.5" y="352.5" width="100" height="100"/>
    <rect class="cls-1" x="652.5" y="2.5" width="100" height="100"/>
    <rect class="cls-1" x="752.5" y="2.5" width="100" height="100"/>
    <rect class="cls-1" x="852.5" y="2.5" width="100" height="100"/>
    <rect class="cls-1" x="652.5" y="102.5" width="100" height="100"/>
    <rect class="cls-1" x="752.5" y="102.5" width="100" height="100"/>
    <rect class="cls-1" x="852.5" y="102.5" width="100" height="100"/>
    <rect class="cls-1" x="202.5" y="252.5" width="100" height="100"/>
    <rect class="cls-1" x="302.5" y="252.5" width="100" height="100"/>
    <rect class="cls-1" x="402.5" y="252.5" width="100" height="100"/>
    <rect class="cls-1" x="202.5" y="352.5" width="100" height="100"/>
    <rect class="cls-1" x="302.5" y="352.5" width="100" height="100"/>
    <rect class="cls-1" x="402.5" y="352.5" width="100" height="100"/>
    <rect class="cls-1" x="202.5" y="452.5" width="100" height="100"/>
    <rect class="cls-1" x="302.5" y="452.5" width="100" height="100"/>
    <rect class="cls-1" x="402.5" y="452.5" width="100" height="100"/>
    <rect class="cls-1" x="202.5" y="552.5" width="100" height="100"/>
    <rect class="cls-1" x="302.5" y="552.5" width="100" height="100"/>
    <rect class="cls-1" x="402.5" y="552.5" width="100" height="100"/>
    <rect class="cls-1" x="402.5" y="652.5" width="100" height="100"/>
    <rect class="cls-1" x="102.5" y="252.5" width="100" height="100"/>
    <rect class="cls-1" x="102.5" y="352.5" width="100" height="100"/>
    <rect class="cls-1" x="102.5" y="452.5" width="100" height="100"/>
    <rect class="cls-1" x="102.5" y="552.5" width="100" height="100"/>
    <rect class="cls-1" x="102.5" y="652.5" width="100" height="100"/>
    <rect class="cls-1" x="502.5" y="252.5" width="100" height="100"/>
    <rect class="cls-1" x="502.5" y="352.5" width="100" height="200"/>
    <rect class="cls-1" x="502.5" y="552.5" width="100" height="200"/>
    <rect class="cls-1" x="2.5" y="252.5" width="100" height="100"/>
    <rect class="cls-1" x="202.5" y="102.5" width="100" height="100"/>
    <rect class="cls-1" x="302.5" y="102.5" width="100" height="100"/>
    <rect class="cls-1" x="402.5" y="102.5" width="100" height="100"/>
    <rect class="cls-1" x="102.5" y="102.5" width="100" height="100"/>
    <rect class="cls-1" x="502.5" y="102.5" width="100" height="100"/>
    <rect class="cls-1" x="2.5" y="102.5" width="100" height="100"/>
    <rect class="cls-1" x="202.5" y="2.5" width="100" height="100"/>
    <rect class="cls-1" x="302.5" y="2.5" width="100" height="100"/>
    <rect class="cls-1" x="402.5" y="2.5" width="100" height="100"/>
    <rect class="cls-1" x="102.5" y="2.5" width="100" height="100"/>
    <rect class="cls-1" x="502.5" y="2.5" width="100" height="100"/>
    <rect class="cls-1" x="2.5" y="2.5" width="100" height="100"/>
    <rect class="cls-1" x="2.5" y="352.5" width="100" height="200"/>
    <rect class="cls-1" x="2.5" y="552.5" width="100" height="200"/>
    <rect class="cls-1" x="202.5" y="652.5" width="200" height="100"/>
    <rect class="cls-1" x="652.5" y="652.5" width="100" height="100"/>
    <rect class="cls-1" x="752.5" y="652.5" width="100" height="100"/>
    <rect class="cls-1" x="752.5" y="552.5" width="100" height="100"/>
    <rect class="cls-1" x="852.5" y="652.5" width="100" height="100"/>
  </g>
</svg>