<?xml version="1.0" encoding="UTF-8"?>
<svg id="Ortho" xmlns="http://www.w3.org/2000/svg" viewBox="0 0 1205 405">
  <defs>
    <style>
      .cls-1 {
        fill: #fff;
        stroke: #f16364;
        stroke-miterlimit: 10;
        stroke-width: 5px;
      }
    </style>
  </defs>
  <g id="_40_Ortho" data-name="40% Ortho">
    <rect class="cls-1" x="2.5" y="302.5" width="100" height="100"/>
    <rect class="cls-1" x="102.5" y="302.5" width="100" height="100"/>
    <rect class="cls-1" x="202.5" y="302.5" width="100" height="100"/>
    <rect class="cls-1" x="302.5" y="302.5" width="100" height="100"/>
    <rect class="cls-1" x="402.5" y="302.5" width="100" height="100"/>
    <rect class="cls-1" x="502.5" y="302.5" width="200" height="100"/>
    <rect class="cls-1" x="702.5" y="302.5" width="100" height="100"/>
    <rect class="cls-1" x="802.5" y="302.5" width="100" height="100"/>
    <rect class="cls-1" x="902.5" y="302.5" width="100" height="100"/>
    <rect class="cls-1" x="1002.5" y="302.5" width="100" height="100"/>
    <rect class="cls-1" x="1102.5" y="302.5" width="100" height="100"/>
    <rect class="cls-1" x="2.5" y="202.5" width="100" height="100"/>
    <rect class="cls-1" x="102.5" y="202.5" width="100" height="100"/>
    <rect class="cls-1" x="202.5" y="202.5" width="100" height="100"/>
    <rect class="cls-1" x="302.5" y="202.5" width="100" height="100"/>
    <rect class="cls-1" x="402.5" y="202.5" width="100" height="100"/>
    <rect class="cls-1" x="502.5" y="202.5" width="100" height="100"/>
    <rect class="cls-1" x="602.5" y="202.5" width="100" height="100"/>
    <rect class="cls-1" x="702.5" y="202.5" width="100" height="100"/>
    <rect class="cls-1" x="802.5" y="202.5" width="100" height="100"/>
    <rect class="cls-1" x="902.5" y="202.5" width="100" height="100"/>
    <rect class="cls-1" x="1002.5" y="202.5" width="100" height="100"/>
    <rect class="cls-1" x="1102.5" y="202.5" width="100" height="100"/>
    <rect class="cls-1" x="2.5" y="102.5" width="100" height="100"/>
    <rect class="cls-1" x="102.5" y="102.5" width="100" height="100"/>
    <rect class="cls-1" x="202.5" y="102.5" width="100" height="100"/>
    <rect class="cls-1" x="302.5" y="102.5" width="100" height="100"/>
    <rect class="cls-1" x="402.5" y="102.5" width="100" height="100"/>
    <rect class="cls-1" x="502.5" y="102.5" width="100" height="100"/>
    <rect class="cls-1" x="602.5" y="102.5" width="100" height="100"/>
    <rect class="cls-1" x="702.5" y="102.5" width="100" height="100"/>
    <rect class="cls-1" x="802.5" y="102.5" width="100" height="100"/>
    <rect class="cls-1" x="902.5" y="102.5" width="100" height="100"/>
    <rect class="cls-1" x="1002.5" y="102.5" width="100" height="100"/>
    <rect class="cls-1" x="1102.5" y="102.5" width="100" height="100"/>
    <rect class="cls-1" x="2.5" y="2.5" width="100" height="100"/>
    <rect class="cls-1" x="102.5" y="2.5" width="100" height="100"/>
    <rect class="cls-1" x="202.5" y="2.5" width="100" height="100"/>
    <rect class="cls-1" x="302.5" y="2.5" width="100" height="100"/>
    <rect class="cls-1" x="402.5" y="2.5" width="100" height="100"/>
    <rect class="cls-1" x="502.5" y="2.5" width="100" height="100"/>
    <rect class="cls-1" x="602.5" y="2.5" width="100" height="100"/>
    <rect class="cls-1" x="702.5" y="2.5" width="100" height="100"/>
    <rect class="cls-1" x="802.5" y="2.5" width="100" height="100"/>
    <rect class="cls-1" x="902.5" y="2.5" width="100" height="100"/>
    <rect class="cls-1" x="1002.5" y="2.5" width="100" height="100"/>
    <rect class="cls-1" x="1102.5" y="2.5" width="100" height="100"/>
  </g>
</svg>