<?xml version="1.0" encoding="UTF-8"?>
<svg id="_40_-50_" data-name="40%-50%" xmlns="http://www.w3.org/2000/svg" viewBox="0 0 1305 405">
  <defs>
    <style>
      .cls-1 {
        fill: #fff;
        stroke: #f16364;
        stroke-miterlimit: 10;
        stroke-width: 5px;
      }
    </style>
  </defs>
  <g id="_45_HHKB" data-name="45% HHKB">
    <rect class="cls-1" x="2.5" y="2.5" width="100" height="100"/>
    <rect class="cls-1" x="2.5" y="102.5" width="125" height="100"/>
    <rect class="cls-1" x="102.5" y="2.5" width="100" height="100"/>
    <rect class="cls-1" x="127.5" y="102.5" width="100" height="100"/>
    <rect class="cls-1" x="177.5" y="202.5" width="100" height="100"/>
    <rect class="cls-1" x="277.5" y="202.5" width="100" height="100"/>
    <rect class="cls-1" x="377.5" y="202.5" width="100" height="100"/>
    <rect class="cls-1" x="477.5" y="202.5" width="100" height="100"/>
    <rect class="cls-1" x="577.5" y="202.5" width="100" height="100"/>
    <rect class="cls-1" x="677.5" y="202.5" width="100" height="100"/>
    <rect class="cls-1" x="777.5" y="202.5" width="100" height="100"/>
    <rect class="cls-1" x="877.5" y="202.5" width="100" height="100"/>
    <rect class="cls-1" x="977.5" y="202.5" width="100" height="100"/>
    <rect class="cls-1" x="1077.5" y="202.5" width="100" height="100"/>
    <rect class="cls-1" x="1177.5" y="202.5" width="125" height="100"/>
    <rect class="cls-1" x="227.5" y="102.5" width="100" height="100"/>
    <rect class="cls-1" x="327.5" y="102.5" width="100" height="100"/>
    <rect class="cls-1" x="427.5" y="102.5" width="100" height="100"/>
    <rect class="cls-1" x="527.5" y="102.5" width="100" height="100"/>
    <rect class="cls-1" x="627.5" y="102.5" width="100" height="100"/>
    <rect class="cls-1" x="727.5" y="102.5" width="100" height="100"/>
    <rect class="cls-1" x="827.5" y="102.5" width="100" height="100"/>
    <rect class="cls-1" x="927.5" y="102.5" width="100" height="100"/>
    <rect class="cls-1" x="1027.5" y="102.5" width="100" height="100"/>
    <rect class="cls-1" x="1127.5" y="102.5" width="175" height="100"/>
    <rect class="cls-1" x="2.5" y="202.5" width="175" height="100"/>
    <rect class="cls-1" x="227.5" y="302.5" width="125" height="100"/>
    <rect class="cls-1" x="127.5" y="302.5" width="100" height="100"/>
    <rect class="cls-1" x="1077.5" y="302.5" width="100" height="100"/>
    <rect class="cls-1" x="352.5" y="302.5" width="125" height="100"/>
    <rect class="cls-1" x="477.5" y="302.5" width="175" height="100"/>
    <rect class="cls-1" x="952.5" y="302.5" width="125" height="100"/>
    <rect class="cls-1" x="827.5" y="302.5" width="125" height="100"/>
    <rect class="cls-1" x="652.5" y="302.5" width="175" height="100"/>
    <rect class="cls-1" x="202.5" y="2.5" width="100" height="100"/>
    <rect class="cls-1" x="302.5" y="2.5" width="100" height="100"/>
    <rect class="cls-1" x="402.5" y="2.5" width="100" height="100"/>
    <rect class="cls-1" x="502.5" y="2.5" width="100" height="100"/>
    <rect class="cls-1" x="602.5" y="2.5" width="100" height="100"/>
    <rect class="cls-1" x="702.5" y="2.5" width="100" height="100"/>
    <rect class="cls-1" x="802.5" y="2.5" width="100" height="100"/>
    <rect class="cls-1" x="902.5" y="2.5" width="100" height="100"/>
    <rect class="cls-1" x="1002.5" y="2.5" width="100" height="100"/>
    <rect class="cls-1" x="1102.5" y="2.5" width="100" height="100"/>
    <rect class="cls-1" x="1202.5" y="2.5" width="100" height="100"/>
  </g>
</svg>