<?xml version="1.0" encoding="UTF-8"?>
<svg id="_60_-75_" data-name="60%-75%" xmlns="http://www.w3.org/2000/svg" viewBox="0 0 1505 505">
  <defs>
    <style>
      .cls-1 {
        fill: #fff;
        stroke: #f16364;
        stroke-miterlimit: 10;
        stroke-width: 5px;
      }
    </style>
  </defs>
  <g id="_63_64_GK64" data-name="63/64%/GK64">
    <rect class="cls-1" x="2.5" y="2.5" width="100" height="100"/>
    <rect class="cls-1" x="2.5" y="102.5" width="150" height="100"/>
    <rect class="cls-1" x="2.5" y="202.5" width="175" height="100"/>
    <rect class="cls-1" x="152.5" y="102.5" width="100" height="100"/>
    <rect class="cls-1" x="177.5" y="202.5" width="100" height="100"/>
    <rect class="cls-1" x="202.5" y="302.5" width="100" height="100"/>
    <rect class="cls-1" x="302.5" y="302.5" width="100" height="100"/>
    <rect class="cls-1" x="402.5" y="302.5" width="100" height="100"/>
    <rect class="cls-1" x="502.5" y="302.5" width="100" height="100"/>
    <rect class="cls-1" x="602.5" y="302.5" width="100" height="100"/>
    <rect class="cls-1" x="702.5" y="302.5" width="100" height="100"/>
    <rect class="cls-1" x="802.5" y="302.5" width="100" height="100"/>
    <rect class="cls-1" x="902.5" y="302.5" width="100" height="100"/>
    <rect class="cls-1" x="1002.5" y="302.5" width="100" height="100"/>
    <rect class="cls-1" x="1102.5" y="302.5" width="100" height="100"/>
    <rect class="cls-1" x="1202.5" y="302.5" width="100" height="100"/>
    <rect class="cls-1" x="1302.5" y="302.5" width="100" height="100"/>
    <rect class="cls-1" x="1402.5" y="302.5" width="100" height="100"/>
    <rect class="cls-1" x="277.5" y="202.5" width="100" height="100"/>
    <rect class="cls-1" x="377.5" y="202.5" width="100" height="100"/>
    <rect class="cls-1" x="477.5" y="202.5" width="100" height="100"/>
    <rect class="cls-1" x="577.5" y="202.5" width="100" height="100"/>
    <rect class="cls-1" x="677.5" y="202.5" width="100" height="100"/>
    <rect class="cls-1" x="777.5" y="202.5" width="100" height="100"/>
    <rect class="cls-1" x="877.5" y="202.5" width="100" height="100"/>
    <rect class="cls-1" x="977.5" y="202.5" width="100" height="100"/>
    <rect class="cls-1" x="1077.5" y="202.5" width="100" height="100"/>
    <rect class="cls-1" x="1177.5" y="202.5" width="100" height="100"/>
    <rect class="cls-1" x="1277.5" y="202.5" width="225" height="100"/>
    <rect class="cls-1" x="2.5" y="302.5" width="200" height="100"/>
    <rect class="cls-1" x="2.5" y="402.5" width="125" height="100"/>
    <rect class="cls-1" x="127.5" y="402.5" width="125" height="100"/>
    <rect class="cls-1" x="252.5" y="402.5" width="125" height="100"/>
    <rect class="cls-1" x="377.5" y="402.5" width="625" height="100"/>
    <rect class="cls-1" x="1302.5" y="402.5" width="100" height="100"/>
    <rect class="cls-1" x="1402.5" y="402.5" width="100" height="100"/>
    <rect class="cls-1" x="1202.5" y="402.5" width="100" height="100"/>
    <rect class="cls-1" x="1102.5" y="402.5" width="100" height="100"/>
    <rect class="cls-1" x="1002.5" y="402.5" width="100" height="100"/>
    <rect class="cls-1" x="252.5" y="102.5" width="100" height="100"/>
    <rect class="cls-1" x="352.5" y="102.5" width="100" height="100"/>
    <rect class="cls-1" x="452.5" y="102.5" width="100" height="100"/>
    <rect class="cls-1" x="552.5" y="102.5" width="100" height="100"/>
    <rect class="cls-1" x="652.5" y="102.5" width="100" height="100"/>
    <rect class="cls-1" x="752.5" y="102.5" width="100" height="100"/>
    <rect class="cls-1" x="852.5" y="102.5" width="100" height="100"/>
    <rect class="cls-1" x="952.5" y="102.5" width="100" height="100"/>
    <rect class="cls-1" x="1052.5" y="102.5" width="100" height="100"/>
    <rect class="cls-1" x="1152.5" y="102.5" width="100" height="100"/>
    <rect class="cls-1" x="1252.5" y="102.5" width="100" height="100"/>
    <rect class="cls-1" x="1352.5" y="102.5" width="150" height="100"/>
    <rect class="cls-1" x="102.5" y="2.5" width="100" height="100"/>
    <rect class="cls-1" x="202.5" y="2.5" width="100" height="100"/>
    <rect class="cls-1" x="302.5" y="2.5" width="100" height="100"/>
    <rect class="cls-1" x="402.5" y="2.5" width="100" height="100"/>
    <rect class="cls-1" x="502.5" y="2.5" width="100" height="100"/>
    <rect class="cls-1" x="602.5" y="2.5" width="100" height="100"/>
    <rect class="cls-1" x="702.5" y="2.5" width="100" height="100"/>
    <rect class="cls-1" x="802.5" y="2.5" width="100" height="100"/>
    <rect class="cls-1" x="902.5" y="2.5" width="100" height="100"/>
    <rect class="cls-1" x="1002.5" y="2.5" width="100" height="100"/>
    <rect class="cls-1" x="1102.5" y="2.5" width="100" height="100"/>
    <rect class="cls-1" x="1202.5" y="2.5" width="100" height="100"/>
    <rect class="cls-1" x="1302.5" y="2.5" width="200" height="100"/>
  </g>
</svg>