<?xml version="1.0" encoding="UTF-8"?>
<svg id="Big_Boards" data-name="Big Boards" xmlns="http://www.w3.org/2000/svg" viewBox="0 0 2685 340">
  <defs>
    <style>
      .cls-1 {
        fill: #f16364;
      }

      .cls-2 {
        fill: #fff;
        stroke: #f16364;
        stroke-miterlimit: 10;
        stroke-width: 5px;
      }
    </style>
  </defs>
  <g id="_88_Key_Piano" data-name="88 Key Piano">
    <g>
      <rect class="cls-2" x="2.5" y="2.5" width="51.538" height="335"/>
      <rect class="cls-2" x="54.038" y="2.5" width="51.538" height="335"/>
      <rect class="cls-1" x="41.154" y="2.5" width="38.654" height="206.154"/>
    </g>
    <g>
      <rect class="cls-2" x="105.577" y="2.5" width="51.538" height="335"/>
      <rect class="cls-2" x="157.115" y="2.5" width="51.538" height="335"/>
      <rect class="cls-2" x="208.654" y="2.5" width="51.538" height="335"/>
      <rect class="cls-1" x="131.346" y="2.5" width="38.654" height="206.154"/>
      <rect class="cls-1" x="195.769" y="2.5" width="38.654" height="206.154"/>
    </g>
    <g>
      <rect class="cls-2" x="260.192" y="2.5" width="51.538" height="335"/>
      <rect class="cls-2" x="311.731" y="2.5" width="51.538" height="335"/>
      <rect class="cls-2" x="363.269" y="2.5" width="51.538" height="335"/>
      <rect class="cls-2" x="414.808" y="2.5" width="51.538" height="335"/>
      <rect class="cls-1" x="285.962" y="2.5" width="38.654" height="206.154"/>
      <rect class="cls-1" x="343.942" y="2.5" width="38.654" height="206.154"/>
      <rect class="cls-1" x="401.923" y="2.5" width="38.654" height="206.154"/>
    </g>
    <g>
      <rect class="cls-2" x="466.346" y="2.5" width="51.538" height="335"/>
      <rect class="cls-2" x="517.885" y="2.5" width="51.538" height="335"/>
      <rect class="cls-2" x="569.423" y="2.5" width="51.538" height="335"/>
      <rect class="cls-1" x="492.115" y="2.5" width="38.654" height="206.154"/>
      <rect class="cls-1" x="556.538" y="2.5" width="38.654" height="206.154"/>
    </g>
    <g>
      <rect class="cls-2" x="620.962" y="2.5" width="51.538" height="335"/>
      <rect class="cls-2" x="672.5" y="2.5" width="51.538" height="335"/>
      <rect class="cls-2" x="724.038" y="2.5" width="51.538" height="335"/>
      <rect class="cls-2" x="775.577" y="2.5" width="51.538" height="335"/>
      <rect class="cls-1" x="646.731" y="2.5" width="38.654" height="206.154"/>
      <rect class="cls-1" x="704.712" y="2.5" width="38.654" height="206.154"/>
      <rect class="cls-1" x="762.692" y="2.5" width="38.654" height="206.154"/>
    </g>
    <g>
      <rect class="cls-2" x="827.115" y="2.5" width="51.538" height="335"/>
      <rect class="cls-2" x="878.654" y="2.5" width="51.538" height="335"/>
      <rect class="cls-2" x="930.192" y="2.5" width="51.538" height="335"/>
      <rect class="cls-1" x="852.885" y="2.5" width="38.654" height="206.154"/>
      <rect class="cls-1" x="917.308" y="2.5" width="38.654" height="206.154"/>
    </g>
    <g>
      <rect class="cls-2" x="981.731" y="2.5" width="51.538" height="335"/>
      <rect class="cls-2" x="1033.269" y="2.5" width="51.538" height="335"/>
      <rect class="cls-2" x="1084.808" y="2.5" width="51.538" height="335"/>
      <rect class="cls-2" x="1136.346" y="2.5" width="51.538" height="335"/>
      <rect class="cls-1" x="1007.5" y="2.5" width="38.654" height="206.154"/>
      <rect class="cls-1" x="1065.481" y="2.5" width="38.654" height="206.154"/>
      <rect class="cls-1" x="1123.462" y="2.5" width="38.654" height="206.154"/>
    </g>
    <g>
      <rect class="cls-2" x="1187.885" y="2.5" width="51.538" height="335"/>
      <rect class="cls-2" x="1239.423" y="2.5" width="51.538" height="335"/>
      <rect class="cls-2" x="1290.962" y="2.5" width="51.538" height="335"/>
      <rect class="cls-1" x="1213.654" y="2.5" width="38.654" height="206.154"/>
      <rect class="cls-1" x="1278.077" y="2.5" width="38.654" height="206.154"/>
    </g>
    <g>
      <rect class="cls-2" x="1342.5" y="2.5" width="51.538" height="335"/>
      <rect class="cls-2" x="1394.038" y="2.5" width="51.538" height="335"/>
      <rect class="cls-2" x="1445.577" y="2.5" width="51.538" height="335"/>
      <rect class="cls-2" x="1497.115" y="2.5" width="51.538" height="335"/>
      <rect class="cls-1" x="1368.269" y="2.5" width="38.654" height="206.154"/>
      <rect class="cls-1" x="1426.25" y="2.5" width="38.654" height="206.154"/>
      <rect class="cls-1" x="1484.231" y="2.5" width="38.654" height="206.154"/>
    </g>
    <g>
      <rect class="cls-2" x="1548.654" y="2.5" width="51.538" height="335"/>
      <rect class="cls-2" x="1600.192" y="2.5" width="51.538" height="335"/>
      <rect class="cls-2" x="1651.731" y="2.5" width="51.538" height="335"/>
      <rect class="cls-1" x="1574.423" y="2.5" width="38.654" height="206.154"/>
      <rect class="cls-1" x="1638.846" y="2.5" width="38.654" height="206.154"/>
    </g>
    <g>
      <rect class="cls-2" x="1703.269" y="2.5" width="51.538" height="335"/>
      <rect class="cls-2" x="1754.808" y="2.5" width="51.538" height="335"/>
      <rect class="cls-2" x="1806.346" y="2.5" width="51.538" height="335"/>
      <rect class="cls-2" x="1857.885" y="2.5" width="51.538" height="335"/>
      <rect class="cls-1" x="1729.038" y="2.5" width="38.654" height="206.154"/>
      <rect class="cls-1" x="1787.019" y="2.5" width="38.654" height="206.154"/>
      <rect class="cls-1" x="1845" y="2.5" width="38.654" height="206.154"/>
    </g>
    <g>
      <rect class="cls-2" x="1909.423" y="2.5" width="51.538" height="335"/>
      <rect class="cls-2" x="1960.962" y="2.5" width="51.538" height="335"/>
      <rect class="cls-2" x="2012.5" y="2.5" width="51.538" height="335"/>
      <rect class="cls-1" x="1935.192" y="2.5" width="38.654" height="206.154"/>
      <rect class="cls-1" x="1999.615" y="2.5" width="38.654" height="206.154"/>
    </g>
    <g>
      <rect class="cls-2" x="2064.038" y="2.5" width="51.538" height="335"/>
      <rect class="cls-2" x="2115.577" y="2.5" width="51.538" height="335"/>
      <rect class="cls-2" x="2167.115" y="2.5" width="51.538" height="335"/>
      <rect class="cls-2" x="2218.654" y="2.5" width="51.538" height="335"/>
      <rect class="cls-1" x="2089.808" y="2.5" width="38.654" height="206.154"/>
      <rect class="cls-1" x="2147.788" y="2.5" width="38.654" height="206.154"/>
      <rect class="cls-1" x="2205.769" y="2.5" width="38.654" height="206.154"/>
    </g>
    <g>
      <rect class="cls-2" x="2270.192" y="2.5" width="51.538" height="335"/>
      <rect class="cls-2" x="2321.731" y="2.5" width="51.538" height="335"/>
      <rect class="cls-2" x="2373.269" y="2.5" width="51.538" height="335"/>
      <rect class="cls-1" x="2295.962" y="2.5" width="38.654" height="206.154"/>
      <rect class="cls-1" x="2360.385" y="2.5" width="38.654" height="206.154"/>
    </g>
    <g>
      <rect class="cls-2" x="2424.808" y="2.5" width="51.538" height="335"/>
      <rect class="cls-2" x="2476.346" y="2.5" width="51.538" height="335"/>
      <rect class="cls-2" x="2527.885" y="2.5" width="51.538" height="335"/>
      <rect class="cls-2" x="2579.423" y="2.5" width="51.538" height="335"/>
      <rect class="cls-2" x="2630.962" y="2.5" width="51.538" height="335"/>
      <rect class="cls-1" x="2450.577" y="2.5" width="38.654" height="206.154"/>
      <rect class="cls-1" x="2508.558" y="2.5" width="38.654" height="206.154"/>
      <rect class="cls-1" x="2566.538" y="2.5" width="38.654" height="206.154"/>
    </g>
  </g>
</svg>