<?xml version="1.0" encoding="UTF-8"?>
<svg id="Southpaw" xmlns="http://www.w3.org/2000/svg" viewBox="0 0 1706.923 455">
  <defs>
    <style>
      .cls-1 {
        fill: #fff;
        stroke: #f16364;
        stroke-miterlimit: 10;
        stroke-width: 5px;
      }
    </style>
  </defs>
  <g id="Southpaw_1400_Min1800_40_1800" data-name="Southpaw 1400/Min1800/40% 1800">
    <rect class="cls-1" x="504.423" y="2.5" width="100" height="100"/>
    <rect class="cls-1" x="504.423" y="102.5" width="125" height="100"/>
    <rect class="cls-1" x="604.423" y="2.5" width="100" height="100"/>
    <rect class="cls-1" x="629.423" y="102.5" width="100" height="100"/>
    <rect class="cls-1" x="679.423" y="202.5" width="100" height="100"/>
    <rect class="cls-1" x="779.423" y="202.5" width="100" height="100"/>
    <rect class="cls-1" x="879.423" y="202.5" width="100" height="100"/>
    <rect class="cls-1" x="979.423" y="202.5" width="100" height="100"/>
    <rect class="cls-1" x="1079.423" y="202.5" width="100" height="100"/>
    <rect class="cls-1" x="1179.423" y="202.5" width="100" height="100"/>
    <rect class="cls-1" x="1279.423" y="202.5" width="100" height="100"/>
    <rect class="cls-1" x="1379.423" y="202.5" width="100" height="100"/>
    <rect class="cls-1" x="1479.423" y="202.5" width="225" height="100"/>
    <rect class="cls-1" x="354.423" y="252.5" width="100" height="100"/>
    <rect class="cls-1" x="354.423" y="2.5" width="100" height="100"/>
    <rect class="cls-1" x="2.5" y="2.5" width="100" height="100"/>
    <rect class="cls-1" x="2.5" y="102.5" width="100" height="100"/>
    <rect class="cls-1" x="102.5" y="102.5" width="100" height="100"/>
    <rect class="cls-1" x="102.5" y="202.5" width="100" height="100"/>
    <rect class="cls-1" x="2.5" y="302.5" width="100" height="100"/>
    <rect class="cls-1" x="2.5" y="202.5" width="100" height="100"/>
    <rect class="cls-1" x="102.5" y="2.5" width="100" height="100"/>
    <rect class="cls-1" x="202.5" y="2.5" width="100" height="100"/>
    <rect class="cls-1" x="202.5" y="102.5" width="100" height="100"/>
    <rect class="cls-1" x="202.5" y="202.5" width="100" height="100"/>
    <rect class="cls-1" x="102.5" y="302.5" width="100" height="100"/>
    <rect class="cls-1" x="729.423" y="102.5" width="100" height="100"/>
    <rect class="cls-1" x="829.423" y="102.5" width="100" height="100"/>
    <rect class="cls-1" x="929.423" y="102.5" width="100" height="100"/>
    <rect class="cls-1" x="1029.423" y="102.5" width="100" height="100"/>
    <rect class="cls-1" x="1129.423" y="102.5" width="100" height="100"/>
    <rect class="cls-1" x="1229.423" y="102.5" width="100" height="100"/>
    <rect class="cls-1" x="1329.423" y="102.5" width="100" height="100"/>
    <rect class="cls-1" x="1429.423" y="102.5" width="100" height="100"/>
    <rect class="cls-1" x="1529.423" y="102.5" width="175" height="100"/>
    <rect class="cls-1" x="504.423" y="202.5" width="175" height="100"/>
    <rect class="cls-1" x="604.423" y="302.5" width="100" height="100"/>
    <rect class="cls-1" x="1454.423" y="302.5" width="125" height="100"/>
    <rect class="cls-1" x="704.423" y="302.5" width="125" height="100"/>
    <rect class="cls-1" x="829.423" y="302.5" width="625" height="100"/>
    <rect class="cls-1" x="254.423" y="352.5" width="100" height="100"/>
    <rect class="cls-1" x="354.423" y="352.5" width="100" height="100"/>
    <rect class="cls-1" x="454.423" y="352.5" width="100" height="100"/>
    <rect class="cls-1" x="1579.423" y="302.5" width="125" height="100"/>
    <rect class="cls-1" x="704.423" y="2.5" width="100" height="100"/>
    <rect class="cls-1" x="804.423" y="2.5" width="100" height="100"/>
    <rect class="cls-1" x="904.423" y="2.5" width="100" height="100"/>
    <rect class="cls-1" x="1004.423" y="2.5" width="100" height="100"/>
    <rect class="cls-1" x="1104.423" y="2.5" width="100" height="100"/>
    <rect class="cls-1" x="1204.423" y="2.5" width="100" height="100"/>
    <rect class="cls-1" x="1304.423" y="2.5" width="100" height="100"/>
    <rect class="cls-1" x="1404.423" y="2.5" width="100" height="100"/>
    <rect class="cls-1" x="1504.423" y="2.5" width="100" height="100"/>
    <rect class="cls-1" x="1604.423" y="2.5" width="100" height="100"/>
  </g>
</svg>